OpenSim_Sub06_EMGBaseline_GRF.mot
version=1
nRows=70
nColumns=19
inDegrees=no
endheader
time	lFx	lFy	lFz	lCOPx	lCOPy	lCOPz	rFx	rFy	rFz	rCOPx	rCOPy	rCOPz	lMx	lMy	lMz	rMx	rMy	rMz
20.67000000	30.47390817	646.56054339	74.48191997	0.85304928	0	-0.68287301	-0.21743968	-0.10208531	0.16615399	0.00153323	0	-0.00060990	0	-2.76100120	0	0	-0.00011948	0.00000000
20.68000000	34.09715209	646.96124146	74.56340567	0.84642876	0	-0.68264687	-0.20883014	-0.08979989	0.16759431	0.00095610	0	-0.00036076	0	-2.81680966	0	0	0.00132515	0.00000000
20.69000000	37.77792876	645.15956670	74.39829364	0.83988841	0	-0.68245394	-0.20767567	-0.34663919	0.09588896	-0.00288925	0	0.00120916	0	-2.85468813	0	0	0.00450652	0.00000000
20.70000000	41.44299863	641.20596645	74.16073723	0.83338065	0	-0.68229440	-0.28327858	-1.19678057	-0.04785381	-0.01246325	0	0.00506661	0	-2.93701755	0	0	0.00876001	-0.00000000
20.71000000	45.00395167	635.48567096	73.95254712	0.82701394	0	-0.68219128	-0.57464029	-2.90133793	-0.16106097	-0.02716766	0	0.01091308	0	-3.07632907	0	0	0.00970748	-0.00000000
20.72000000	48.49980505	628.35534712	73.84231282	0.82070729	0	-0.68213173	-1.15317379	-5.11325912	-0.03076040	-0.03584298	0	0.01416963	0	-3.28336091	0	0	-0.00352310	0.00000000
20.73000000	51.97273526	620.01345519	73.84495038	0.81441379	0	-0.68210625	-1.74823064	-5.43264022	0.81829764	-0.00662224	0	0.00196182	0	-3.54128703	0	0	-0.04758626	0.00000000
20.74000000	55.40678156	610.45548208	73.89385070	0.80818430	0	-0.68210880	-1.33099843	1.96702635	2.89689227	0.11565583	0	-0.04772859	0	-3.80071197	0	0	-0.13220069	0
20.75000000	58.69001307	599.45623190	73.86586421	0.80222656	0	-0.68211793	1.26298276	27.11454883	5.96590213	0.37888603	0	-0.15343421	0	-4.03163437	0	0	-0.22394232	0
20.76000000	61.70170693	586.38599310	73.52719899	0.79660713	0	-0.68212607	3.10141515	82.76911814	9.41904360	0.72395128	0	-0.28990308	0	-4.21394246	0	0	-0.18540457	0
20.77000000	64.41832735	570.02213871	72.50793155	0.79114033	0	-0.68211238	-4.31203783	173.94578085	11.67202385	0.97184385	0	-0.38559298	0	-4.27276669	0	0	0.10141907	0.00000000
20.78000000	66.65873035	548.74851431	70.41836531	0.78582423	0	-0.68201033	-24.19693120	289.61370383	7.74607711	1.08165604	0	-0.42606084	0	-4.14623590	0	0	0.25645893	0
20.79000000	67.99516913	520.87078036	66.81739042	0.78093165	0	-0.68169964	-48.05866397	404.95039634	-0.96006694	1.10711378	0	-0.43241839	0	-3.78980313	0	0	0.65025871	-0.00000000
20.80000000	67.91033582	485.27810522	61.39791107	0.77672845	0	-0.68109639	-65.06324742	491.34422235	-11.63264439	1.10011383	0	-0.42589191	0	-3.19814084	0	0	0.91035722	0.00000000
20.81000000	66.00001890	442.19920656	54.34590928	0.77292346	0	-0.68012285	-72.57300989	532.85582346	-21.37881267	1.08722245	0	-0.41791426	0	-2.41510184	0	0	0.93069796	0
20.82000000	62.19376702	392.73163488	46.27619398	0.76939033	0	-0.67901464	-73.28908883	535.74873007	-31.23169214	1.07661419	0	-0.41184831	0	-1.47046272	0	0	0.81117790	0.00000000
20.83000000	56.65758639	338.44754901	37.95952784	0.76741865	0	-0.67866222	-70.38261005	520.18132980	-43.54662930	1.06882751	0	-0.40746709	0	-0.43601598	0	0	0.54675766	0.00000000
20.84000000	49.53296373	281.57011112	30.15087472	0.76941103	0	-0.68048617	-66.49715816	504.55204607	-57.78160688	1.06282384	0	-0.40397275	0	0.56463914	0	0	0.22591589	0
20.85000000	40.86918823	225.09799922	23.43761456	0.77666218	0	-0.68518855	-62.92029292	498.41131422	-71.35753795	1.05804466	0	-0.40095577	0	1.47424655	0	0	-0.13772043	0
20.86000000	31.15216230	172.20263020	18.14160133	0.78623190	0	-0.68969552	-59.94685509	503.94732269	-81.80071224	1.05396355	0	-0.39843748	0	2.25962230	0	0	-0.45505058	0
20.87000000	21.35009161	125.45787735	14.36437600	0.78513225	0	-0.68233511	-57.50860698	519.70895541	-87.92404124	1.04969983	0	-0.39662900	0	2.77578406	0	0	-0.64395426	0
20.88000000	12.37537494	86.89870464	11.96694607	0.74750719	0	-0.63990731	-55.29077392	543.50751648	-89.61393107	1.04459654	0	-0.39563709	0	2.90398876	0	0	-0.64750016	0.00000000
20.89000000	4.77724881	57.62928672	10.56845549	0.64173775	0	-0.53551529	-53.01994480	572.62724930	-87.61787745	1.03877216	0	-0.39537883	0	2.60637821	0	0	-0.48180261	-0.00000000
20.90000000	-0.99362320	37.19688711	9.72893096	0.46615240	0	-0.37416759	-50.66078365	603.36316634	-83.28112903	1.03260042	0	-0.39556567	0	1.86906543	0	0	-0.25351169	0
20.91000000	-4.50654805	23.50122137	9.18077687	0.27238248	0	-0.20814710	-48.17571221	631.90526475	-78.22317562	1.02631257	0	-0.39586686	0	0.98247743	0	0	-0.05000957	-0.00000000
20.92000000	-5.43908764	13.90297449	8.46793783	0.12282472	0	-0.08585489	-45.57411310	655.72850632	-73.92299724	1.02008352	0	-0.39602166	0	0.37881052	0	0	0.08411775	0
20.93000000	-3.84172473	6.52684050	7.24891941	0.04160504	0	-0.02303142	-42.81429889	673.86331098	-71.20881460	1.01372594	0	-0.39590163	0	0.10898883	0	0	0.13537593	0.00000000
20.94000000	-1.22826561	1.42905370	5.89506740	0.00339765	0	0.00276054	-39.95353073	686.77086559	-70.27246838	1.00740424	0	-0.39547922	0	-0.00226640	0	0	0.14846526	-0.00000000
20.95000000	0.56572214	-0.86780819	5.35377749	0.00149834	0	0.00253413	-37.17345953	695.18032211	-70.75086566	1.00146513	0	-0.39477294	0	-0.00069085	0	0	0.08820081	0
20.96000000	1.32427087	-1.38614029	5.25526686	0.02743653	0	-0.01489292	-34.64318500	699.33986079	-72.04687786	0.99605896	0	-0.39387163	0	0.07861756	0	0	-0.08850979	-0.00000000
20.97000000	1.45579195	-1.22819751	5.28169639	0.06781216	0	-0.04039735	-32.51627042	699.24491620	-73.51583888	0.99117608	0	-0.39287073	0	0.19065690	0	0	-0.32113705	0
20.98000000	1.32223147	-0.98941072	5.49225422	0.08813230	0	-0.05347796	-30.74497816	695.13208664	-74.37884884	0.98655553	0	-0.39181991	0	0.23255758	0	0	-0.51204328	0.00000000
20.99000000	1.14124865	-0.83960850	5.58861113	0.06429133	0	-0.03939498	-29.27770864	687.70559032	-74.38841591	0.98200778	0	-0.39072596	0	0.15922296	0	0	-0.64380538	-0.00000000
21	0.97493670	-0.77712502	5.71474585	0.02878288	0	-0.01777775	-28.06594074	677.90659069	-73.88365017	0.97766152	0	-0.38960376	0	0.06741825	0	0	-0.67726078	-0.00000000
21.01000000	0.86116287	-0.76074955	5.74659618	0.00626379	0	-0.00395179	-26.96014372	666.69592464	-73.07399505	0.97357044	0	-0.38845862	0	0.01239495	0	0	-0.66719220	0
21.02000000	0.80855974	-0.72516146	5.72612950	-0.00253774	0	0.00150051	-25.77837897	654.85845548	-72.17760686	0.96946899	0	-0.38730155	0	-0.00778078	0	0	-0.61896693	-0.00000000
21.03000000	0.80714354	-0.68672564	5.68569735	-0.00369906	0	0.00225262	-24.38031250	643.16991899	-71.37042434	0.96525659	0	-0.38617769	0	-0.00954546	0	0	-0.49012288	0
21.04000000	0.83482908	-0.60775666	5.60889873	-0.00231472	0	0.00142144	-22.85522620	632.23539290	-70.66492771	0.96095626	0	-0.38511928	0	-0.00564823	0	0	-0.32416695	0.00000000
21.05000000	0.84210945	-0.50361450	5.53935817	-0.00089174	0	0.00055259	-21.31848297	622.68300030	-69.98659790	0.95664830	0	-0.38413776	0	-0.00203899	0	0	-0.17993423	0.00000000
21.06000000	0.81727617	-0.44236230	5.44158333	-0.00010891	0	0.00007091	-19.75369614	615.16748218	-69.25846412	0.95242430	0	-0.38324021	0	-0.00015525	0	0	-0.06111420	0.00000000
21.07000000	0.78075576	-0.41986399	5.39035954	0.00014731	0	-0.00008853	-17.95156874	609.84467725	-68.47558515	0.94793530	0	-0.38245118	0	0.00041247	0	0	0.05237522	0
21.08000000	0.75837913	-0.41730061	5.35221090	0.00014753	0	-0.00009010	-15.91244936	606.79792475	-67.77529106	0.94291826	0	-0.38177379	0	0.00037351	0	0	0.19489320	0.00000000
21.09000000	0.72999225	-0.42948686	5.30786622	0.00008011	0	-0.00004931	-13.73983386	606.17129371	-67.28596806	0.93741028	0	-0.38119275	0	0.00019213	0	0	0.35651084	0.00000000
21.10000000	0.66713317	-0.39735421	5.31535350	0.00002567	0	-0.00001599	-11.44283831	607.91322603	-67.01796142	0.93142208	0	-0.38071409	0	0.00005587	0	0	0.48582767	0
21.11000000	0.58541545	-0.34078269	5.33727685	-0.00000039	0	0.00000009	-8.97701149	611.74636045	-66.98466439	0.92498071	0	-0.38034995	0	-0.00000596	0	0	0.59871631	0
21.12000000	0.50942635	-0.30675574	5.36555493	-0.00000681	0	0.00000412	-6.26420812	617.14094534	-67.16245494	0.91827065	0	-0.38007236	0	-0.00001830	0	0	0.68345369	0
21.13000000	0.45183987	-0.33588001	5.37705548	-0.00000466	0	0.00000287	-3.38595108	623.34053917	-67.50495312	0.91160141	0	-0.37985853	0	-0.00000803	0	0	0.70313981	0
21.14000000	0.38355205	-0.45458498	5.34531336	-0.00000078	0	0.00000052	-0.44946055	629.57437679	-68.07959530	0.90511081	0	-0.37973284	0	0.00000941	0	0	0.72191673	0
21.15000000	0.29665796	-0.54235037	5.28123169	0.00000146	0	-0.00000085	2.62554317	635.43672848	-68.84607999	0.89882884	0	-0.37968573	0	0.00002399	0	0	0.79023727	0
21.16000000	0.21347463	-0.53874964	5.20043233	-0.00000046	0	0.00000028	6.06773460	640.81449669	-69.70884217	0.89258263	0	-0.37965389	0	0.00001860	0	0	0.87755710	-0.00000000
21.17000000	0.15146192	-0.49599028	5.12924024	-0.00000968	0	0.00000580	9.97137422	645.88719829	-70.62525583	0.88622987	0	-0.37958586	0	-0.00004018	0	0	0.97347266	0
21.18000000	0.10959340	-0.51675614	5.10965207	-0.00002797	0	0.00001675	14.13808763	650.78192283	-71.43543461	0.87972193	0	-0.37946373	0	-0.00019334	0	0	1.07355493	0
21.19000000	0.08436356	-0.57960478	5.10818109	-0.00004822	0	0.00002888	18.31710678	655.36178420	-72.00952621	0.87306270	0	-0.37931165	0	-0.00043732	0	0	1.19544678	0
21.20000000	0.06381269	-0.59891700	5.10259525	-0.00004092	0	0.00002449	22.38697468	659.43842729	-72.36751069	0.86644045	0	-0.37919413	0	-0.00060325	0	0	1.34245894	0
21.21000000	0.02912863	-0.55349891	5.12137076	0.00005796	0	-0.00003477	26.46851387	662.77548818	-72.43236160	0.86000546	0	-0.37915912	0	-0.00018637	0	0	1.45307502	0
21.22000000	-0.01062725	-0.52039615	5.14572468	0.00033251	0	-0.00019926	30.67104322	665.20288753	-72.26775498	0.85381733	0	-0.37920860	0	0.00171755	0	0	1.52479219	0
21.23000000	-0.04703358	-0.58980804	5.14412410	0.00079731	0	-0.00047766	34.95470828	666.76420449	-72.14807194	0.84777871	0	-0.37929011	0	0.00596039	0	0	1.61786186	-0.00000000
21.24000000	-0.07642521	-0.65045596	5.15025610	0.00117801	0	-0.00070550	39.21479776	667.62344529	-72.28590855	0.84184261	0	-0.37928202	0	0.01171919	0	0	1.73000377	0
21.25000000	-0.05994284	-0.69682185	5.16375189	0.00058004	0	-0.00034681	43.36989145	667.82289153	-72.77379299	0.83590480	0	-0.37911024	0	0.01324625	0	0	1.80930012	-0.00000000
21.26000000	0.01099616	-0.82128784	5.13127507	-0.00269263	0	0.00161435	47.40139597	667.47699397	-73.59110679	0.83000804	0	-0.37878130	0	-0.00391931	0	0	1.81927234	0
21.27000000	0.04677963	-1.15666924	5.13686938	-0.01043584	0	0.00625314	51.33328849	666.62066837	-74.63688190	0.82416834	0	-0.37837168	0	-0.06221686	0	0	1.76239179	0
21.28000000	-0.21200274	-1.71530211	5.20048034	-0.02171166	0	0.01300606	55.17814412	665.14906866	-75.81155325	0.81844475	0	-0.37795990	0	-0.17545127	0	0	1.66249504	0.00000000
21.29000000	-1.18150315	-2.03823915	5.22389761	-0.02684152	0	0.01607261	58.90596123	662.79488824	-77.08957482	0.81290827	0	-0.37757880	0	-0.30076243	0	0	1.54938362	0.00000000
21.30000000	-3.22508212	-0.69112155	5.02903884	0.00022352	0	-0.00015354	62.65329774	659.09468259	-78.34493880	0.80736735	0	-0.37724549	0	-0.25470064	0	0	1.44484123	0
21.31000000	-5.95752596	4.91339988	4.30793386	0.10246354	0	-0.06141507	66.56188915	653.67522834	-79.40362966	0.80185572	0	-0.37695723	0	0.36136110	0	0	1.36015831	0.00000000
21.32000000	-8.14073241	19.53350654	2.83558089	0.31258002	0	-0.18728166	70.57699454	646.34845393	-80.22131763	0.79650498	0	-0.37671535	0	2.07116760	0	0	1.28905995	0
21.33000000	-8.54216005	50.35433929	0.48096071	0.59528883	0	-0.35695537	74.50085464	636.93943200	-80.67960733	0.79140118	0	-0.37645890	0	5.06604878	0	0	1.18798305	0
21.34000000	-7.94770519	101.74209522	-0.77259770	0.85929572	0	-0.51761733	78.07027481	624.69529673	-80.56396120	0.78644620	0	-0.37616718	0	8.58230938	0	0	1.08324790	0
21.35000000	-9.33691200	167.43759834	2.17729687	1.01838120	0	-0.61811644	81.05173863	608.40399105	-79.50103389	0.78170217	0	-0.37584775	0	10.90075011	0	0	0.97398993	0
21.36000000	-12.09144041	234.89671696	9.13325109	1.07609344	0	-0.65871370	83.09321099	586.79026440	-77.00770866	0.77722122	0	-0.37555402	0	11.44622151	0	0	0.87859383	0
